simulation
nRows=25
nColumns=15
endheader
time  TH_x TH_y TH_z SC_y  SC_z  SC_x  AC_y  AC_z  AC_x  GH_y  GH_z  GH_yy  EL_x  PS_y
0.000000  0.000000  0.000000  0.000000  -22.833240  5.310145  -0.428021  52.415895  9.418844  2.616388  0.279526  12.088391  35.104570  27.932410  73.834948
0.037374  0.000000  0.000000  0.000000  -22.470687  4.928843  -1.304470  52.393155  10.371043  2.154664  2.253279  11.925107  37.985819  26.005347  72.582574
0.074747  0.000000  0.000000  0.000000  -22.202601  4.700658  -1.820765  52.450086  10.848902  1.964778  2.268853  11.545048  40.699824  25.298377  71.853756
0.112121  0.000000  0.000000  0.000000  -22.018343  4.597151  -2.044135  52.577229  10.954487  1.999827  0.823479  11.054687  43.018267  25.595259  71.583683
0.149495  0.000000  0.000000  0.000000  -21.907277  4.589882  -2.036560  52.759642  10.784978  2.212060  -1.585613  10.560493  44.712828  26.679758  71.707547
0.186869  0.000000  0.000000  0.000000  -21.858766  4.650413  -1.845297  52.981437  10.425639  2.545553  -4.461193  10.168937  45.555188  28.335634  72.160536
0.224242  0.000000  0.000000  0.000000  -21.862172  4.750303  -1.516672  53.226418  9.961122  2.943674  -7.306031  9.986492  45.317029  30.346651  72.877842
0.261616  0.000000  0.000000  0.000000  -21.906859  4.861115  -1.099824  53.479110  9.478739  3.350653  -9.622896  10.119626  43.770031  32.496571  73.794655
0.298990  0.000000  0.000000  0.000000  -21.982190  4.954407  -0.652864  53.724967  9.073592  3.714920  -10.914558  10.674812  40.685877  34.569156  74.846165
0.336364  0.000000  0.000000  0.000000  -22.077527  5.001742  -0.234873  53.951219  8.842233  3.984261  -10.683786  11.758520  35.836247  36.348168  75.967562
0.373737  0.000000  0.000000  0.000000  -22.182233  4.974680  0.091202  54.145660  8.884908  4.107984  -8.433350  13.477222  28.992823  37.617370  77.094037
0.411111  0.000000  0.000000  0.000000  -22.285225  4.846612  0.266631  54.296688  9.293565  4.037394  -3.714624  15.926943  19.973015  38.168725  78.159345
0.448485  0.000000  0.000000  0.000000  -22.368147  4.620744  0.271061  54.411955  10.043664  3.774917  3.129482  19.033621  9.338975  37.927745  79.073875
0.485859  0.000000  0.000000  0.000000  -22.406727  4.324537  0.100176  54.513748  11.027988  3.373374  11.112087  22.584814  -1.741246  36.928597  79.729006
0.523232  0.000000  0.000000  0.000000  -22.376521  3.986157  -0.254566  54.624642  12.140792  2.889144  19.227611  26.364060  -12.082006  35.208602  80.015564
0.560606  0.000000  0.000000  0.000000  -22.253086  3.633770  -0.807808  54.768373  13.281673  2.380544  26.470475  30.154898  -20.497663  32.805081  79.824377
0.597980  0.000000  0.000000  0.000000  -22.012797  3.295535  -1.590324  54.968337  14.365447  1.913524  31.847558  33.741036  -25.821198  29.759713  79.050235
0.635354  0.000000  0.000000  0.000000  -21.670745  2.999348  -2.567067  55.217387  15.320664  1.534198  34.954222  36.914049  -27.765383  26.320155  77.775207
0.672727  0.000000  0.000000  0.000000  -21.296684  2.772729  -3.587000  55.467345  16.074191  1.251865  36.216735  39.476624  -27.285201  23.024882  76.345790
0.710101  0.000000  0.000000  0.000000  -20.964496  2.643171  -4.508428  55.665265  16.565255  1.087991  36.124120  41.232290  -25.429455  20.434336  75.128450
0.747475  0.000000  0.000000  0.000000  -20.748064  2.638166  -5.176558  55.760079  16.720491  1.059923  35.165400  41.984572  -23.246946  19.108959  74.489654
0.784848  0.000000  0.000000  0.000000  -20.721166  2.785148  -5.431514  55.699937  16.462086  1.182821  33.829164  41.537387  -21.785364  19.608539  74.795406
0.822222  0.000000  0.000000  0.000000  -20.917056  3.088297  -5.176341  55.452668  15.758481  1.440526  32.434449  39.846337  -21.657112  22.237722  76.231149
0.859596  0.000000  0.000000  0.000000  -21.267128  3.493362  -4.497403  55.036907  14.712952  1.755810  30.874145  37.248275  -22.380563  26.659885  78.528505
0.896970  0.000000  0.000000  0.000000  -21.687029  3.937051  -3.538495  54.475160  13.474534  2.057064  28.975251  34.138998  -23.304931  32.439251  81.348927
